{
	"asset":{
		"generator":"Khronos glTF Blender I/O v3.5.30",
		"version":"2.0"
	},
	"scene":0,
	"scenes":[
		{
			"name":"Scene",
			"nodes":[
				0,
				1,
				2,
				3,
				4,
				5,
				6,
				7,
				8,
				9,
				10,
				11,
				12,
				13,
				14,
				15,
				16,
				17,
				18,
				19,
				20,
				21,
				22,
				23,
				24,
				25,
				26,
				27
			]
		}
	],
	"nodes":[
		{
			"mesh":0,
			"name":"Cube"
		},
		{
			"mesh":1,
			"name":"Cube.002"
		},
		{
			"mesh":2,
			"name":"Cube.003"
		},
		{
			"mesh":3,
			"name":"Cube.004"
		},
		{
			"mesh":4,
			"name":"Cube.005"
		},
		{
			"mesh":5,
			"name":"Cube.006"
		},
		{
			"mesh":6,
			"name":"Cube.007"
		},
		{
			"mesh":7,
			"name":"Cube.008"
		},
		{
			"mesh":8,
			"name":"Cube.009"
		},
		{
			"mesh":9,
			"name":"Cube.010"
		},
		{
			"mesh":10,
			"name":"Cube.011"
		},
		{
			"mesh":11,
			"name":"Cube.012"
		},
		{
			"mesh":12,
			"name":"Cube.013"
		},
		{
			"mesh":13,
			"name":"Cube.014",
			"translation":[
				0.026530403643846512,
				-0.9948585033416748,
				0.0036737173795700073
			]
		},
		{
			"mesh":14,
			"name":"Cube.015"
		},
		{
			"mesh":15,
			"name":"Cube.016"
		},
		{
			"mesh":16,
			"name":"Cube.017"
		},
		{
			"mesh":17,
			"name":"Cube.018"
		},
		{
			"mesh":18,
			"name":"Cube.019"
		},
		{
			"mesh":19,
			"name":"Cube.020"
		},
		{
			"mesh":20,
			"name":"Cube.021"
		},
		{
			"mesh":21,
			"name":"Cube.022"
		},
		{
			"mesh":22,
			"name":"Cube.023"
		},
		{
			"mesh":23,
			"name":"Cube.024"
		},
		{
			"mesh":24,
			"name":"Cube.025"
		},
		{
			"mesh":25,
			"name":"Cube.026"
		},
		{
			"mesh":26,
			"name":"Cube.027"
		},
		{
			"mesh":27,
			"name":"Cube.001",
			"translation":[
				0.015172958374023438,
				-0.03492927551269531,
				0.008707523345947266
			]
		}
	],
	"materials":[
		{
			"doubleSided":true,
			"name":"Material.001",
			"pbrMetallicRoughness":{
				"baseColorFactor":[
					0.009017915464937687,
					0.009017915464937687,
					0.009017915464937687,
					1
				],
				"metallicFactor":0,
				"roughnessFactor":0.4000000059604645
			}
		}
	],
	"meshes":[
		{
			"name":"Cube.001",
			"primitives":[
				{
					"attributes":{
						"POSITION":0,
						"TEXCOORD_0":1,
						"NORMAL":2
					},
					"indices":3,
					"material":0
				}
			]
		},
		{
			"name":"Cube.003",
			"primitives":[
				{
					"attributes":{
						"POSITION":4,
						"TEXCOORD_0":5,
						"NORMAL":6
					},
					"indices":7,
					"material":0
				}
			]
		},
		{
			"name":"Cube.004",
			"primitives":[
				{
					"attributes":{
						"POSITION":8,
						"TEXCOORD_0":9,
						"NORMAL":10
					},
					"indices":7,
					"material":0
				}
			]
		},
		{
			"name":"Cube.005",
			"primitives":[
				{
					"attributes":{
						"POSITION":11,
						"TEXCOORD_0":12,
						"NORMAL":13
					},
					"indices":7,
					"material":0
				}
			]
		},
		{
			"name":"Cube.006",
			"primitives":[
				{
					"attributes":{
						"POSITION":14,
						"TEXCOORD_0":15,
						"NORMAL":16
					},
					"indices":7,
					"material":0
				}
			]
		},
		{
			"name":"Cube.007",
			"primitives":[
				{
					"attributes":{
						"POSITION":17,
						"TEXCOORD_0":18,
						"NORMAL":19
					},
					"indices":7,
					"material":0
				}
			]
		},
		{
			"name":"Cube.008",
			"primitives":[
				{
					"attributes":{
						"POSITION":20,
						"TEXCOORD_0":21,
						"NORMAL":22
					},
					"indices":7,
					"material":0
				}
			]
		},
		{
			"name":"Cube.009",
			"primitives":[
				{
					"attributes":{
						"POSITION":23,
						"TEXCOORD_0":24,
						"NORMAL":25
					},
					"indices":7,
					"material":0
				}
			]
		},
		{
			"name":"Cube.010",
			"primitives":[
				{
					"attributes":{
						"POSITION":26,
						"TEXCOORD_0":27,
						"NORMAL":28
					},
					"indices":7,
					"material":0
				}
			]
		},
		{
			"name":"Cube.011",
			"primitives":[
				{
					"attributes":{
						"POSITION":29,
						"TEXCOORD_0":30,
						"NORMAL":31
					},
					"indices":7,
					"material":0
				}
			]
		},
		{
			"name":"Cube.012",
			"primitives":[
				{
					"attributes":{
						"POSITION":32,
						"TEXCOORD_0":33,
						"NORMAL":34
					},
					"indices":7,
					"material":0
				}
			]
		},
		{
			"name":"Cube.013",
			"primitives":[
				{
					"attributes":{
						"POSITION":35,
						"TEXCOORD_0":36,
						"NORMAL":37
					},
					"indices":7,
					"material":0
				}
			]
		},
		{
			"name":"Cube.014",
			"primitives":[
				{
					"attributes":{
						"POSITION":38,
						"TEXCOORD_0":39,
						"NORMAL":40
					},
					"indices":7,
					"material":0
				}
			]
		},
		{
			"name":"Cube.015",
			"primitives":[
				{
					"attributes":{
						"POSITION":41,
						"TEXCOORD_0":42,
						"NORMAL":43
					},
					"indices":7,
					"material":0
				}
			]
		},
		{
			"name":"Cube.016",
			"primitives":[
				{
					"attributes":{
						"POSITION":44,
						"TEXCOORD_0":45,
						"NORMAL":46
					},
					"indices":7,
					"material":0
				}
			]
		},
		{
			"name":"Cube.017",
			"primitives":[
				{
					"attributes":{
						"POSITION":47,
						"TEXCOORD_0":48,
						"NORMAL":49
					},
					"indices":7,
					"material":0
				}
			]
		},
		{
			"name":"Cube.018",
			"primitives":[
				{
					"attributes":{
						"POSITION":50,
						"TEXCOORD_0":51,
						"NORMAL":52
					},
					"indices":7,
					"material":0
				}
			]
		},
		{
			"name":"Cube.019",
			"primitives":[
				{
					"attributes":{
						"POSITION":53,
						"TEXCOORD_0":54,
						"NORMAL":55
					},
					"indices":7,
					"material":0
				}
			]
		},
		{
			"name":"Cube.020",
			"primitives":[
				{
					"attributes":{
						"POSITION":56,
						"TEXCOORD_0":57,
						"NORMAL":58
					},
					"indices":7,
					"material":0
				}
			]
		},
		{
			"name":"Cube.021",
			"primitives":[
				{
					"attributes":{
						"POSITION":59,
						"TEXCOORD_0":60,
						"NORMAL":61
					},
					"indices":7,
					"material":0
				}
			]
		},
		{
			"name":"Cube.022",
			"primitives":[
				{
					"attributes":{
						"POSITION":62,
						"TEXCOORD_0":63,
						"NORMAL":64
					},
					"indices":7,
					"material":0
				}
			]
		},
		{
			"name":"Cube.023",
			"primitives":[
				{
					"attributes":{
						"POSITION":65,
						"TEXCOORD_0":66,
						"NORMAL":67
					},
					"indices":7,
					"material":0
				}
			]
		},
		{
			"name":"Cube.024",
			"primitives":[
				{
					"attributes":{
						"POSITION":68,
						"TEXCOORD_0":69,
						"NORMAL":70
					},
					"indices":7,
					"material":0
				}
			]
		},
		{
			"name":"Cube.025",
			"primitives":[
				{
					"attributes":{
						"POSITION":71,
						"TEXCOORD_0":72,
						"NORMAL":73
					},
					"indices":7,
					"material":0
				}
			]
		},
		{
			"name":"Cube.026",
			"primitives":[
				{
					"attributes":{
						"POSITION":74,
						"TEXCOORD_0":75,
						"NORMAL":76
					},
					"indices":7,
					"material":0
				}
			]
		},
		{
			"name":"Cube.027",
			"primitives":[
				{
					"attributes":{
						"POSITION":77,
						"TEXCOORD_0":78,
						"NORMAL":79
					},
					"indices":7,
					"material":0
				}
			]
		},
		{
			"name":"Cube.028",
			"primitives":[
				{
					"attributes":{
						"POSITION":80,
						"TEXCOORD_0":81,
						"NORMAL":82
					},
					"indices":7,
					"material":0
				}
			]
		},
		{
			"name":"Cube.002",
			"primitives":[
				{
					"attributes":{
						"POSITION":83,
						"TEXCOORD_0":84,
						"NORMAL":85
					},
					"indices":3,
					"material":0
				}
			]
		}
	],
	"accessors":[
		{
			"bufferView":0,
			"componentType":5126,
			"count":238,
			"max":[
				-1,
				-2,
				3
			],
			"min":[
				-3,
				-4,
				1
			],
			"type":"VEC3"
		},
		{
			"bufferView":1,
			"componentType":5126,
			"count":238,
			"type":"VEC2"
		},
		{
			"bufferView":2,
			"componentType":5126,
			"count":238,
			"type":"VEC3"
		},
		{
			"bufferView":3,
			"componentType":5123,
			"count":1296,
			"type":"SCALAR"
		},
		{
			"bufferView":4,
			"componentType":5126,
			"count":238,
			"max":[
				1,
				-2,
				3
			],
			"min":[
				-1,
				-4,
				1
			],
			"type":"VEC3"
		},
		{
			"bufferView":5,
			"componentType":5126,
			"count":238,
			"type":"VEC2"
		},
		{
			"bufferView":6,
			"componentType":5126,
			"count":238,
			"type":"VEC3"
		},
		{
			"bufferView":7,
			"componentType":5123,
			"count":1296,
			"type":"SCALAR"
		},
		{
			"bufferView":8,
			"componentType":5126,
			"count":238,
			"max":[
				3,
				-2,
				3
			],
			"min":[
				1,
				-4,
				1
			],
			"type":"VEC3"
		},
		{
			"bufferView":9,
			"componentType":5126,
			"count":238,
			"type":"VEC2"
		},
		{
			"bufferView":10,
			"componentType":5126,
			"count":238,
			"type":"VEC3"
		},
		{
			"bufferView":11,
			"componentType":5126,
			"count":238,
			"max":[
				-1,
				-2,
				1
			],
			"min":[
				-3,
				-4,
				-1
			],
			"type":"VEC3"
		},
		{
			"bufferView":12,
			"componentType":5126,
			"count":238,
			"type":"VEC2"
		},
		{
			"bufferView":13,
			"componentType":5126,
			"count":238,
			"type":"VEC3"
		},
		{
			"bufferView":14,
			"componentType":5126,
			"count":238,
			"max":[
				1,
				-2,
				1
			],
			"min":[
				-1,
				-4,
				-1
			],
			"type":"VEC3"
		},
		{
			"bufferView":15,
			"componentType":5126,
			"count":238,
			"type":"VEC2"
		},
		{
			"bufferView":16,
			"componentType":5126,
			"count":238,
			"type":"VEC3"
		},
		{
			"bufferView":17,
			"componentType":5126,
			"count":238,
			"max":[
				3,
				-2,
				1
			],
			"min":[
				1,
				-4,
				-1
			],
			"type":"VEC3"
		},
		{
			"bufferView":18,
			"componentType":5126,
			"count":238,
			"type":"VEC2"
		},
		{
			"bufferView":19,
			"componentType":5126,
			"count":238,
			"type":"VEC3"
		},
		{
			"bufferView":20,
			"componentType":5126,
			"count":238,
			"max":[
				-1,
				-2,
				-1
			],
			"min":[
				-3,
				-4,
				-3
			],
			"type":"VEC3"
		},
		{
			"bufferView":21,
			"componentType":5126,
			"count":238,
			"type":"VEC2"
		},
		{
			"bufferView":22,
			"componentType":5126,
			"count":238,
			"type":"VEC3"
		},
		{
			"bufferView":23,
			"componentType":5126,
			"count":238,
			"max":[
				1,
				-2,
				-1
			],
			"min":[
				-1,
				-4,
				-3
			],
			"type":"VEC3"
		},
		{
			"bufferView":24,
			"componentType":5126,
			"count":238,
			"type":"VEC2"
		},
		{
			"bufferView":25,
			"componentType":5126,
			"count":238,
			"type":"VEC3"
		},
		{
			"bufferView":26,
			"componentType":5126,
			"count":238,
			"max":[
				3,
				-2,
				-1
			],
			"min":[
				1,
				-4,
				-3
			],
			"type":"VEC3"
		},
		{
			"bufferView":27,
			"componentType":5126,
			"count":238,
			"type":"VEC2"
		},
		{
			"bufferView":28,
			"componentType":5126,
			"count":238,
			"type":"VEC3"
		},
		{
			"bufferView":29,
			"componentType":5126,
			"count":238,
			"max":[
				-1,
				0,
				3
			],
			"min":[
				-3,
				-2,
				1
			],
			"type":"VEC3"
		},
		{
			"bufferView":30,
			"componentType":5126,
			"count":238,
			"type":"VEC2"
		},
		{
			"bufferView":31,
			"componentType":5126,
			"count":238,
			"type":"VEC3"
		},
		{
			"bufferView":32,
			"componentType":5126,
			"count":238,
			"max":[
				1,
				0,
				3
			],
			"min":[
				-1,
				-2,
				1
			],
			"type":"VEC3"
		},
		{
			"bufferView":33,
			"componentType":5126,
			"count":238,
			"type":"VEC2"
		},
		{
			"bufferView":34,
			"componentType":5126,
			"count":238,
			"type":"VEC3"
		},
		{
			"bufferView":35,
			"componentType":5126,
			"count":238,
			"max":[
				3,
				0,
				3
			],
			"min":[
				1,
				-2,
				1
			],
			"type":"VEC3"
		},
		{
			"bufferView":36,
			"componentType":5126,
			"count":238,
			"type":"VEC2"
		},
		{
			"bufferView":37,
			"componentType":5126,
			"count":238,
			"type":"VEC3"
		},
		{
			"bufferView":38,
			"componentType":5126,
			"count":238,
			"max":[
				-1,
				0,
				1
			],
			"min":[
				-3,
				-2,
				-1
			],
			"type":"VEC3"
		},
		{
			"bufferView":39,
			"componentType":5126,
			"count":238,
			"type":"VEC2"
		},
		{
			"bufferView":40,
			"componentType":5126,
			"count":238,
			"type":"VEC3"
		},
		{
			"bufferView":41,
			"componentType":5126,
			"count":238,
			"max":[
				1,
				0.9999995827674866,
				1
			],
			"min":[
				-0.9999999403953552,
				-1.0000004768371582,
				-1
			],
			"type":"VEC3"
		},
		{
			"bufferView":42,
			"componentType":5126,
			"count":238,
			"type":"VEC2"
		},
		{
			"bufferView":43,
			"componentType":5126,
			"count":238,
			"type":"VEC3"
		},
		{
			"bufferView":44,
			"componentType":5126,
			"count":238,
			"max":[
				3,
				0,
				1
			],
			"min":[
				1,
				-2,
				-1
			],
			"type":"VEC3"
		},
		{
			"bufferView":45,
			"componentType":5126,
			"count":238,
			"type":"VEC2"
		},
		{
			"bufferView":46,
			"componentType":5126,
			"count":238,
			"type":"VEC3"
		},
		{
			"bufferView":47,
			"componentType":5126,
			"count":238,
			"max":[
				-1,
				0,
				-1
			],
			"min":[
				-3,
				-2,
				-3
			],
			"type":"VEC3"
		},
		{
			"bufferView":48,
			"componentType":5126,
			"count":238,
			"type":"VEC2"
		},
		{
			"bufferView":49,
			"componentType":5126,
			"count":238,
			"type":"VEC3"
		},
		{
			"bufferView":50,
			"componentType":5126,
			"count":238,
			"max":[
				1,
				0,
				-1
			],
			"min":[
				-1,
				-2,
				-3
			],
			"type":"VEC3"
		},
		{
			"bufferView":51,
			"componentType":5126,
			"count":238,
			"type":"VEC2"
		},
		{
			"bufferView":52,
			"componentType":5126,
			"count":238,
			"type":"VEC3"
		},
		{
			"bufferView":53,
			"componentType":5126,
			"count":238,
			"max":[
				3,
				0,
				-1
			],
			"min":[
				1,
				-2,
				-3
			],
			"type":"VEC3"
		},
		{
			"bufferView":54,
			"componentType":5126,
			"count":238,
			"type":"VEC2"
		},
		{
			"bufferView":55,
			"componentType":5126,
			"count":238,
			"type":"VEC3"
		},
		{
			"bufferView":56,
			"componentType":5126,
			"count":238,
			"max":[
				-1,
				2,
				3
			],
			"min":[
				-3,
				0,
				1
			],
			"type":"VEC3"
		},
		{
			"bufferView":57,
			"componentType":5126,
			"count":238,
			"type":"VEC2"
		},
		{
			"bufferView":58,
			"componentType":5126,
			"count":238,
			"type":"VEC3"
		},
		{
			"bufferView":59,
			"componentType":5126,
			"count":238,
			"max":[
				1,
				2,
				3
			],
			"min":[
				-1,
				0,
				1
			],
			"type":"VEC3"
		},
		{
			"bufferView":60,
			"componentType":5126,
			"count":238,
			"type":"VEC2"
		},
		{
			"bufferView":61,
			"componentType":5126,
			"count":238,
			"type":"VEC3"
		},
		{
			"bufferView":62,
			"componentType":5126,
			"count":238,
			"max":[
				3,
				2,
				3
			],
			"min":[
				1,
				0,
				1
			],
			"type":"VEC3"
		},
		{
			"bufferView":63,
			"componentType":5126,
			"count":238,
			"type":"VEC2"
		},
		{
			"bufferView":64,
			"componentType":5126,
			"count":238,
			"type":"VEC3"
		},
		{
			"bufferView":65,
			"componentType":5126,
			"count":238,
			"max":[
				-1,
				2,
				1
			],
			"min":[
				-3,
				0,
				-1
			],
			"type":"VEC3"
		},
		{
			"bufferView":66,
			"componentType":5126,
			"count":238,
			"type":"VEC2"
		},
		{
			"bufferView":67,
			"componentType":5126,
			"count":238,
			"type":"VEC3"
		},
		{
			"bufferView":68,
			"componentType":5126,
			"count":238,
			"max":[
				1,
				2,
				1
			],
			"min":[
				-1,
				0,
				-1
			],
			"type":"VEC3"
		},
		{
			"bufferView":69,
			"componentType":5126,
			"count":238,
			"type":"VEC2"
		},
		{
			"bufferView":70,
			"componentType":5126,
			"count":238,
			"type":"VEC3"
		},
		{
			"bufferView":71,
			"componentType":5126,
			"count":238,
			"max":[
				3,
				2,
				1
			],
			"min":[
				1,
				0,
				-1
			],
			"type":"VEC3"
		},
		{
			"bufferView":72,
			"componentType":5126,
			"count":238,
			"type":"VEC2"
		},
		{
			"bufferView":73,
			"componentType":5126,
			"count":238,
			"type":"VEC3"
		},
		{
			"bufferView":74,
			"componentType":5126,
			"count":238,
			"max":[
				-1,
				2,
				-1
			],
			"min":[
				-3,
				0,
				-3
			],
			"type":"VEC3"
		},
		{
			"bufferView":75,
			"componentType":5126,
			"count":238,
			"type":"VEC2"
		},
		{
			"bufferView":76,
			"componentType":5126,
			"count":238,
			"type":"VEC3"
		},
		{
			"bufferView":77,
			"componentType":5126,
			"count":238,
			"max":[
				1,
				2,
				-1
			],
			"min":[
				-1,
				0,
				-3
			],
			"type":"VEC3"
		},
		{
			"bufferView":78,
			"componentType":5126,
			"count":238,
			"type":"VEC2"
		},
		{
			"bufferView":79,
			"componentType":5126,
			"count":238,
			"type":"VEC3"
		},
		{
			"bufferView":80,
			"componentType":5126,
			"count":238,
			"max":[
				3,
				2,
				-1
			],
			"min":[
				1,
				0,
				-3
			],
			"type":"VEC3"
		},
		{
			"bufferView":81,
			"componentType":5126,
			"count":238,
			"type":"VEC2"
		},
		{
			"bufferView":82,
			"componentType":5126,
			"count":238,
			"type":"VEC3"
		},
		{
			"bufferView":83,
			"componentType":5126,
			"count":238,
			"max":[
				1,
				1,
				1
			],
			"min":[
				-1,
				-1,
				-1
			],
			"type":"VEC3"
		},
		{
			"bufferView":84,
			"componentType":5126,
			"count":238,
			"type":"VEC2"
		},
		{
			"bufferView":85,
			"componentType":5126,
			"count":238,
			"type":"VEC3"
		}
	],
	"bufferViews":[
		{
			"buffer":0,
			"byteLength":2856,
			"byteOffset":0,
			"target":34962
		},
		{
			"buffer":0,
			"byteLength":1904,
			"byteOffset":2856,
			"target":34962
		},
		{
			"buffer":0,
			"byteLength":2856,
			"byteOffset":4760,
			"target":34962
		},
		{
			"buffer":0,
			"byteLength":2592,
			"byteOffset":7616,
			"target":34963
		},
		{
			"buffer":0,
			"byteLength":2856,
			"byteOffset":10208,
			"target":34962
		},
		{
			"buffer":0,
			"byteLength":1904,
			"byteOffset":13064,
			"target":34962
		},
		{
			"buffer":0,
			"byteLength":2856,
			"byteOffset":14968,
			"target":34962
		},
		{
			"buffer":0,
			"byteLength":2592,
			"byteOffset":17824,
			"target":34963
		},
		{
			"buffer":0,
			"byteLength":2856,
			"byteOffset":20416,
			"target":34962
		},
		{
			"buffer":0,
			"byteLength":1904,
			"byteOffset":23272,
			"target":34962
		},
		{
			"buffer":0,
			"byteLength":2856,
			"byteOffset":25176,
			"target":34962
		},
		{
			"buffer":0,
			"byteLength":2856,
			"byteOffset":28032,
			"target":34962
		},
		{
			"buffer":0,
			"byteLength":1904,
			"byteOffset":30888,
			"target":34962
		},
		{
			"buffer":0,
			"byteLength":2856,
			"byteOffset":32792,
			"target":34962
		},
		{
			"buffer":0,
			"byteLength":2856,
			"byteOffset":35648,
			"target":34962
		},
		{
			"buffer":0,
			"byteLength":1904,
			"byteOffset":38504,
			"target":34962
		},
		{
			"buffer":0,
			"byteLength":2856,
			"byteOffset":40408,
			"target":34962
		},
		{
			"buffer":0,
			"byteLength":2856,
			"byteOffset":43264,
			"target":34962
		},
		{
			"buffer":0,
			"byteLength":1904,
			"byteOffset":46120,
			"target":34962
		},
		{
			"buffer":0,
			"byteLength":2856,
			"byteOffset":48024,
			"target":34962
		},
		{
			"buffer":0,
			"byteLength":2856,
			"byteOffset":50880,
			"target":34962
		},
		{
			"buffer":0,
			"byteLength":1904,
			"byteOffset":53736,
			"target":34962
		},
		{
			"buffer":0,
			"byteLength":2856,
			"byteOffset":55640,
			"target":34962
		},
		{
			"buffer":0,
			"byteLength":2856,
			"byteOffset":58496,
			"target":34962
		},
		{
			"buffer":0,
			"byteLength":1904,
			"byteOffset":61352,
			"target":34962
		},
		{
			"buffer":0,
			"byteLength":2856,
			"byteOffset":63256,
			"target":34962
		},
		{
			"buffer":0,
			"byteLength":2856,
			"byteOffset":66112,
			"target":34962
		},
		{
			"buffer":0,
			"byteLength":1904,
			"byteOffset":68968,
			"target":34962
		},
		{
			"buffer":0,
			"byteLength":2856,
			"byteOffset":70872,
			"target":34962
		},
		{
			"buffer":0,
			"byteLength":2856,
			"byteOffset":73728,
			"target":34962
		},
		{
			"buffer":0,
			"byteLength":1904,
			"byteOffset":76584,
			"target":34962
		},
		{
			"buffer":0,
			"byteLength":2856,
			"byteOffset":78488,
			"target":34962
		},
		{
			"buffer":0,
			"byteLength":2856,
			"byteOffset":81344,
			"target":34962
		},
		{
			"buffer":0,
			"byteLength":1904,
			"byteOffset":84200,
			"target":34962
		},
		{
			"buffer":0,
			"byteLength":2856,
			"byteOffset":86104,
			"target":34962
		},
		{
			"buffer":0,
			"byteLength":2856,
			"byteOffset":88960,
			"target":34962
		},
		{
			"buffer":0,
			"byteLength":1904,
			"byteOffset":91816,
			"target":34962
		},
		{
			"buffer":0,
			"byteLength":2856,
			"byteOffset":93720,
			"target":34962
		},
		{
			"buffer":0,
			"byteLength":2856,
			"byteOffset":96576,
			"target":34962
		},
		{
			"buffer":0,
			"byteLength":1904,
			"byteOffset":99432,
			"target":34962
		},
		{
			"buffer":0,
			"byteLength":2856,
			"byteOffset":101336,
			"target":34962
		},
		{
			"buffer":0,
			"byteLength":2856,
			"byteOffset":104192,
			"target":34962
		},
		{
			"buffer":0,
			"byteLength":1904,
			"byteOffset":107048,
			"target":34962
		},
		{
			"buffer":0,
			"byteLength":2856,
			"byteOffset":108952,
			"target":34962
		},
		{
			"buffer":0,
			"byteLength":2856,
			"byteOffset":111808,
			"target":34962
		},
		{
			"buffer":0,
			"byteLength":1904,
			"byteOffset":114664,
			"target":34962
		},
		{
			"buffer":0,
			"byteLength":2856,
			"byteOffset":116568,
			"target":34962
		},
		{
			"buffer":0,
			"byteLength":2856,
			"byteOffset":119424,
			"target":34962
		},
		{
			"buffer":0,
			"byteLength":1904,
			"byteOffset":122280,
			"target":34962
		},
		{
			"buffer":0,
			"byteLength":2856,
			"byteOffset":124184,
			"target":34962
		},
		{
			"buffer":0,
			"byteLength":2856,
			"byteOffset":127040,
			"target":34962
		},
		{
			"buffer":0,
			"byteLength":1904,
			"byteOffset":129896,
			"target":34962
		},
		{
			"buffer":0,
			"byteLength":2856,
			"byteOffset":131800,
			"target":34962
		},
		{
			"buffer":0,
			"byteLength":2856,
			"byteOffset":134656,
			"target":34962
		},
		{
			"buffer":0,
			"byteLength":1904,
			"byteOffset":137512,
			"target":34962
		},
		{
			"buffer":0,
			"byteLength":2856,
			"byteOffset":139416,
			"target":34962
		},
		{
			"buffer":0,
			"byteLength":2856,
			"byteOffset":142272,
			"target":34962
		},
		{
			"buffer":0,
			"byteLength":1904,
			"byteOffset":145128,
			"target":34962
		},
		{
			"buffer":0,
			"byteLength":2856,
			"byteOffset":147032,
			"target":34962
		},
		{
			"buffer":0,
			"byteLength":2856,
			"byteOffset":149888,
			"target":34962
		},
		{
			"buffer":0,
			"byteLength":1904,
			"byteOffset":152744,
			"target":34962
		},
		{
			"buffer":0,
			"byteLength":2856,
			"byteOffset":154648,
			"target":34962
		},
		{
			"buffer":0,
			"byteLength":2856,
			"byteOffset":157504,
			"target":34962
		},
		{
			"buffer":0,
			"byteLength":1904,
			"byteOffset":160360,
			"target":34962
		},
		{
			"buffer":0,
			"byteLength":2856,
			"byteOffset":162264,
			"target":34962
		},
		{
			"buffer":0,
			"byteLength":2856,
			"byteOffset":165120,
			"target":34962
		},
		{
			"buffer":0,
			"byteLength":1904,
			"byteOffset":167976,
			"target":34962
		},
		{
			"buffer":0,
			"byteLength":2856,
			"byteOffset":169880,
			"target":34962
		},
		{
			"buffer":0,
			"byteLength":2856,
			"byteOffset":172736,
			"target":34962
		},
		{
			"buffer":0,
			"byteLength":1904,
			"byteOffset":175592,
			"target":34962
		},
		{
			"buffer":0,
			"byteLength":2856,
			"byteOffset":177496,
			"target":34962
		},
		{
			"buffer":0,
			"byteLength":2856,
			"byteOffset":180352,
			"target":34962
		},
		{
			"buffer":0,
			"byteLength":1904,
			"byteOffset":183208,
			"target":34962
		},
		{
			"buffer":0,
			"byteLength":2856,
			"byteOffset":185112,
			"target":34962
		},
		{
			"buffer":0,
			"byteLength":2856,
			"byteOffset":187968,
			"target":34962
		},
		{
			"buffer":0,
			"byteLength":1904,
			"byteOffset":190824,
			"target":34962
		},
		{
			"buffer":0,
			"byteLength":2856,
			"byteOffset":192728,
			"target":34962
		},
		{
			"buffer":0,
			"byteLength":2856,
			"byteOffset":195584,
			"target":34962
		},
		{
			"buffer":0,
			"byteLength":1904,
			"byteOffset":198440,
			"target":34962
		},
		{
			"buffer":0,
			"byteLength":2856,
			"byteOffset":200344,
			"target":34962
		},
		{
			"buffer":0,
			"byteLength":2856,
			"byteOffset":203200,
			"target":34962
		},
		{
			"buffer":0,
			"byteLength":1904,
			"byteOffset":206056,
			"target":34962
		},
		{
			"buffer":0,
			"byteLength":2856,
			"byteOffset":207960,
			"target":34962
		},
		{
			"buffer":0,
			"byteLength":2856,
			"byteOffset":210816,
			"target":34962
		},
		{
			"buffer":0,
			"byteLength":1904,
			"byteOffset":213672,
			"target":34962
		},
		{
			"buffer":0,
			"byteLength":2856,
			"byteOffset":215576,
			"target":34962
		}
	],
	"buffers":[
		{
			"byteLength":218432,
			"uri":"scene.bin"
		}
	]
}
